/* XPM */
static const char *east[] = {
/* columns rows colors chars-per-pixel */
"64 40 210 2 ",
"   c #0A5835",
".  c #0F5E3B",
"X  c #195A37",
"o  c #135D3A",
"O  c #1D5B39",
"+  c #275737",
"@  c #2A5736",
"#  c #2E5338",
"$  c #235939",
"%  c #2E5838",
"&  c #0C603A",
"*  c #1F1F5D",
"=  c #3F0F5E",
"-  c #2A1957",
";  c #2E1758",
":  c #241D5B",
">  c #281A58",
",  c #3D1E56",
"<  c #34155B",
"1  c #3B125E",
"2  c #3D1D5B",
"3  c #13344E",
"4  c #113B4C",
"5  c #122153",
"6  c #16235D",
"7  c #1A215D",
"8  c #0F3F52",
"9  c #133652",
"0  c #1C3556",
"q  c #143C54",
"w  c #1C3C55",
"e  c #1D355B",
"r  c #163D5C",
"t  c #1B3C5C",
"y  c #2E2655",
"u  c #262E53",
"i  c #2B2C54",
"p  c #252E5A",
"a  c #2C2C58",
"s  c #332455",
"d  c #3C2356",
"f  c #332B56",
"g  c #3C2C55",
"h  c #362459",
"j  c #3C235B",
"k  c #342C5A",
"l  c #3B2B5A",
"z  c #243454",
"x  c #2B3355",
"c  c #233C54",
"v  c #2A3B57",
"b  c #23335A",
"n  c #2C3459",
"m  c #233B5A",
"M  c #2C3C5A",
"N  c #353457",
"B  c #3C3454",
"V  c #353C55",
"C  c #3B3B54",
"Z  c #34335A",
"A  c #3B335A",
"S  c #323B5B",
"D  c #3B3B5A",
"F  c #461B4F",
"G  c #450B57",
"H  c #4D0E54",
"J  c #430E5A",
"K  c #4B0D5A",
"L  c #520E55",
"P  c #540D59",
"I  c #471654",
"U  c #4B1354",
"Y  c #451C54",
"T  c #4A1B55",
"R  c #45175A",
"E  c #4A1459",
"W  c #431B5A",
"Q  c #4C1C5A",
"!  c #501256",
"~  c #521459",
"^  c #432454",
"/  c #492355",
"(  c #422B54",
")  c #482C56",
"_  c #432359",
"`  c #4A2459",
"'  c #432C5A",
"]  c #49295B",
"[  c #423255",
"{  c #413359",
"}  c #413C5C",
"|  c #0E444E",
" . c #0B4E4F",
".. c #10414D",
"X. c #09534F",
"o. c #0E4451",
"O. c #0D4C52",
"+. c #0F4E5A",
"@. c #134455",
"#. c #1C4455",
"$. c #144C57",
"%. c #1C4C55",
"&. c #15445B",
"*. c #1B445B",
"=. c #144C5B",
"-. c #1B4B5A",
";. c #075352",
":. c #0B5354",
">. c #0B5B57",
",. c #095953",
"<. c #0E5059",
"1. c #0F5359",
"2. c #0E5259",
"3. c #0E525A",
"4. c #0C5359",
"5. c #0D5459",
"6. c #0E5559",
"7. c #0C5759",
"8. c #0D545A",
"9. c #0E555A",
"0. c #0F555B",
"q. c #0F545A",
"w. c #0D565B",
"e. c #0E565A",
"r. c #0F5659",
"t. c #0F565E",
"y. c #0D555C",
"u. c #0F5759",
"i. c #0B5B58",
"p. c #0B595A",
"a. c #0C5958",
"s. c #0C5B58",
"d. c #0D595B",
"f. c #0C5A5B",
"g. c #0A5E59",
"h. c #0A5C5A",
"j. c #095D58",
"k. c #0A5A5D",
"l. c #0B5A5F",
"z. c #0C595C",
"x. c #0F595E",
"c. c #0E5A5F",
"v. c #0D5B5F",
"b. c #095C5D",
"n. c #0D5D5F",
"m. c #0D5D5E",
"M. c #0E5C5F",
"N. c #0D5F5F",
"B. c #0E5D5D",
"V. c #0E5A5B",
"C. c #155555",
"Z. c #1B5255",
"A. c #145856",
"S. c #195A57",
"D. c #105159",
"F. c #105259",
"G. c #10515A",
"H. c #11525A",
"J. c #11565B",
"K. c #12515C",
"L. c #11525C",
"P. c #11505E",
"I. c #12505E",
"U. c #12525E",
"Y. c #11525E",
"T. c #10545C",
"R. c #12565C",
"E. c #10545F",
"W. c #10575F",
"Q. c #14535B",
"!. c #1B545A",
"~. c #10585F",
"^. c #125A5B",
"/. c #1B5A5A",
"(. c #234355",
"). c #2D4457",
"_. c #224A56",
"`. c #2D4C55",
"'. c #24445A",
"]. c #2B445A",
"[. c #244C5A",
"{. c #2B4B5B",
"}. c #344454",
"|. c #3A4255",
" X c #324B54",
".X c #384857",
"XX c #33435A",
"oX c #394359",
"OX c #334C5A",
"+X c #39495D",
"@X c #225256",
"#X c #2B5156",
"$X c #23525B",
"%X c #2B535A",
"&X c #23595D",
"*X c #325357",
"=X c #32525A",
"-X c #0C615B",
";X c #0B615E",
":X c #0C615C",
">X c #194460",
",X c #134C60",
"<X c #154B60",
"1X c #0E5860",
"2X c #0D5C60",
"3X c #0D5860",
"4X c #105160",
"5X c #125660",
"6X c #105A60",
"7X c #274F61",
/* pixels */
"  ;.,.;.O.X.:.;.O.X.:.;.O.X.:. .O.X.:.O.O.X.:.O.O. .+.| O.O.+.| O.O.O.| o.O.O...@.o.o.| @.o.o.4 @.o.q 4 q 8 q 4 q q 9 3 q 9 3 5 ",
"& b.;Xb.l.j.;Xj.f.j.n.i.w.i.n.w.w.i.V.w.w.i.3X2.P.w.t.+.P.t.t.$.P.2.4X$.=.+.=.$.=.+.=.@.=.=.&.@.&.&.&.q &.&.r q &.&.r q r r t 6 ",
"& l.-Xf.w.i.n.i.w.>.n.w.w.f.V.w.J.f.V.2.G.w.t.+.G.2.T.$.=.2.P.$.=.2.=.$.$.=.=.@.$.$.=.@.&.&.&.@.&.&.&.q &.&.r q r r w 9 w e e 6 ",
"& l.:Xf.w.f.n.f.J.f.2Xw.T.f.V.2.G.w.~.G.G.w.5X=.=.2.P.$.=.G.P.$.=.G.=.@.$.=.&.@.&.$.&.@.&.&.&.@.&.&.r q &.&.r q t r t 0 t e e 7 ",
"& l.n.f.w.f.n.f.J.f.V.w.P.w.V.2.P.w.T.G.P.w.T.=.=.G.P.$.=.2.=.$.=.=.,X@.&.$.<X&.&.$.&.@.&.&.&.r &.&.r w t r t w t t e 0 e e e 7 ",
". 3X:Xf.T.f.~.f.J.f.~.J.P.w.5XG.P.J.T.G.Q.J.5X=.=.G.P.$.=.=.,X=.=.=.,X&.&.&.&.&.&.&.>X&.*.&.>Xw *.*.t w t t t w t t e 0 e e e * ",
"o V.~.V.T.f.~.f.^.^.6XJ.P.J.5XP.Q.J.T.=.=.G.4X=.=.G.Q.=.=.=.=.=.&.=.<X&.&.&.&.&.*.&.>X&.*.*.*.w *.*.t w t t e 0 t e e 0 e e b * ",
"o V.~.^.Q.^.~.J.Q.^.~.G.G.J.^.G.C.J.^.=.=.G.Q.=.=.C.Q.=.=.=.=.&.-.=.&.&.*.=.*.#.*.*.*.w *.*.t w t w t w t t e 0 e 0 e 0 b b p * ",
"o ~.~.^.J.^.~.^.Q.J.~.C.C.J.^.C.C.G.^.=.=.C.Q.=.-.=.=.$.-.=.-.&.-.=.-.#.*.-.*.#.#.*.*.w *.*.t w t w t w t t e 0 e b b z b p p : ",
"o ~.~.^.Q.^.~.J.Q.^.^.C.C.C.^.C.C.G.^.=.-.C.Q.$.-.=.=.$.-.-.-.#.-.-.*.#.*.*.*.#.*.#.*.w *.*.t w t w t z m m m z b b b u b p p : ",
"o ~.^.J.C.A.^.Q.C.A.^.C.C.C.^.C.!.C.Q.$.-.C.!.%.-.%.-.#.-.-.-.#.-.%.*.#.#.#.*.#.#.#.*.w w w m w w w m z m m m z b b p u p p i > ",
"o ~.^.^.C.A.^.Q.!.A.^.C.!.C.!.$.-.C.!.-.-.Z.!.%.-.%.-.#.-.%.-.#.#.%.*.#.*.#.*.w *.*.t w w w m c m m m z b b b z b b p u p p i > ",
"o Q.^.C.Z.A.S.C.Z.C.Q.C.Z.Z.S.$.%.Z.!.%.%.Z.-.%.%.%.-.#.#.%.-.#.#.#.#.w #.#.'.w c (.m c c c m z c m m z z m b u z p a i a a i > ",
"X Q.S.C.Z.C.S.C.Z.C.S.%.%.Z.!.%.%.Z.-.%.%.%.-.#.%.%.-.#.#.%.#.#.#.#.*.w #.#.'.c c c m c c c m z z z m z z z a u i u i i i a y - ",
"X S.S.C.Z.C.S.Z.%.Z.S.%.%.Z.!.%.%.Z.-.%.%.%.-.#.#.%.-.#.(.%.#.(.#.#.'.c (.(.m c c c m z c c m z z z b z x z a u i i y i i y y - ",
"X C.S.C.Z.C.S.Z.%.Z.!.%.%.Z.!.%.%.%.-.%.%.%.-.#.(.%._.#.(.#.'.(.(._.'.c c c m c c c m z c c m z z z x u x i a i i i y y y y s ; ",
"X S.S.Z.Z.Z.S.Z.%.Z.!.%.%.Z.!.%.%.%.-.%._.%._.#.(.%.'.(.(.(.'.(.(.(.'.c c c m c c c m z c z n z x x x u x i a i y y y y y y s ; ",
"X S.S.Z.Z.Z.S.Z.Z.Z.!.%.%.Z.!.%._.%.[.%._.%._.(.(._.'.(.(.(.'.(.(.(.m c c c v c c v n z x x n x x x a i i i a i y y s s s s s ; ",
"O !./.S.Z.Z.!.Z._.Z.!.%.[.@X!.%._._.[._._._.[.(.(.(.'.(.(.(.'.c (.(.M v v v v z v v n x x x n x x x a i i i f f f s h s s h s < ",
"O /./.S.@XZ./.!.@XZ.!.-.[.@X$X_._._.[.(._._.[.'.'.(.'.(.(.(.'.c c ].M v v v M x v x n x x x n i x a k i f f f s s h h s s h d < ",
"O /./.!.@XZ./.@X@X@X$X[.[.@X$X_._._.[.'._._.[.'.'.(.'.c ].].].v v v M v v v M x x n n x n n k f k k k f f h h s h h h s h 2 , < ",
"O &X/.!.@X@X&X@X[.@X$X[.[.@X$X_._.[.[.'.'._.{.'.'.'.].v ].].M v v v M v v v M x n n Z Z Z Z k f k k k f h h h s h h h d 2 2 , < ",
"$ &X&X$X@X@X&X@X[.@X$X[._.[.[._._._.[.].].{.].].].].].v v ].M v M M M n n v Z x n Z Z Z Z k k f k k h f h h h d h h h , 2 2 , 1 ",
"$ &X&X@X@X@X&X@X[.$X$X[._.[.[._._._.{.].].].].].].].].v M M M v v v S n Z Z Z Z Z Z A k k k k f h l l s h j j d h h 2 , 2 2 W 1 ",
"$ $X&X@X$X@X$X$X[.$X7X_._.[.{.].].{.{.].].].].v ].].].M M M S S v S S Z Z Z Z Z Z Z k k k k l f h l j d h j j d j 2 2 , 2 2 W 1 ",
"$ $X&X$X[.$X$X[.[.$X7X{.{.{.{.].].{.].].].].].M M ].S v M S S S S S Z Z Z N A Z Z Z l h k l l l l h j d h j j d 2 2 W , W W W 1 ",
"$ $X&X$X$X$X$X[.{.#X%X{.{.{.{.].].].{.].].].].M M XXS S S S S Z S S Z Z Z Z A k k l l l l l l d h j j d j _ W , W W W Y W R I 1 ",
"$ $X$X$X$X#X%X{.{.{.{.{.{.`.{.].].].].].].].XXM S S S S S S S N N N A Z Z A A l l l l l l l j d j _ _ d j _ W Y W W R Y R R I = ",
"$ $X&X$X{.#X%X#X{.{.{.{.].`.{.].].).].].XX].XXS S V S S S S S N N N A Z A A A g l l l g l j j d d _ _ d _ W W Y W W R Y R E I J ",
"$ #X%X#X{.#X%X{.).`.{.).).`.{.].XX).XXXXXXXXXXS V V S V V V A N N N A g A A l g g l ' d d j _ d ^ _ _ Y W W W Y R R E I E E U J ",
"$ #X%X#X{.#X%X{.).`.{.).].`.OX}.XX}.XXXXXX}.S V V V D N N N A N N N A g g g l g g g _ d ( _ _ ^ ^ _ W Y Y R R Y Y R E I E E U J ",
"$ #X%X#X`.#X%X{.`.`.{.).}. XOX}.}.}.XX}.V }.S V V N D N N N A B B B A g g g l g g ( _ ^ ( _ _ ^ ^ _ W Y Y R R Y I E E U U E U J ",
"+ #X%X#X`.#X%X`. X`.OX}.}.}.XX}.}.|.XXV V V D V V C D B N N D B B B ' g g ( ' g g ( _ ^ ^ / _ ^ Y Y Y Y Y T T I I E U U U K U G ",
"@ %X%X`.`.`.OX`. X`.OX}.}.}.XX}.}.|.XXV V V D V C C D B N B A g B g ' g g ( ( ^ ^ ( ^ ^ ^ ^ Y Y Y T T F I I I I U E U U H K H G ",
"@ %X%X`.OX`.=XOX X XOX}.}.}.XX}.|.|.oXV C V D N B B D B B B { g g g ' ( ( ( ) ^ ^ ^ _ ^ ^ / Y Y Y T T I I I I I U U U U H H H G ",
"@ %X*X{. X XOX X X X.X}.}.}.XX}.|.|.oXV C V D N B B D B B B { g g ( ' ( ( ( ^ ^ ^ / _ ^ ^ Y T Y I T T I U I U U U U H H H H L G ",
"@ OX*X`. X XOX X}. X.X}.}. XoXV V C D N C C D B B B { B B [ ' g ( ( ' ( ( ^ ^ ^ ^ / / ^ Y T T Y T T U T U U U U U U H U H P L G ",
"@ =X*XOXOX XOX X}. X.X}.|. XoXV V C D C C C D B B B { B [ [ ' ( ( ) ] ( ( / ` ^ ^ / ` ^ T T Q T T T U T U U ! U U ! L H L P L K ",
"% =X=XOXOX XOX X.X X+XoX|.|.oX|.D D } C C } } { { { { [ [ [ ' ' ' ' ] ) / / ` / / / ` T Q Q Q T T ~ ~ U U ~ ~ U ! P P L P P P K ",
"# OX*X X X X.X X}. XoX|.|.|.oXV C C D B C C { B B [ { ( ( ( ' ( ( ( ) ^ ^ / / ^ ^ / T T T T T T T T U U U U ! U U L L U L P L K "
};
