/* XPM */
static const char *north[] = {
/* columns rows colors chars-per-pixel */
"64 36 256 2 ",
"   c #0A0D16",
".  c #170D17",
"X  c #0B0B12",
"o  c #260D1D",
"O  c #340410",
"+  c #3A0512",
"@  c #38091E",
"#  c #33040E",
"$  c #171327",
"%  c #181935",
"&  c #0E152B",
"*  c #2A0F25",
"=  c #281228",
"-  c #36112C",
";  c #2A1836",
":  c #371538",
">  c #370D2D",
",  c #440413",
"<  c #4C0617",
"1  c #540515",
"2  c #5D051A",
"3  c #570719",
"4  c #6C061A",
"5  c #62071B",
"6  c #73051C",
"7  c #7A071B",
"8  c #73101C",
"9  c #490B26",
"0  c #580A25",
"q  c #560D33",
"w  c #461539",
"e  c #551337",
"r  c #490F32",
"t  c #660925",
"y  c #770723",
"u  c #690D36",
"i  c #7A0B36",
"p  c #76153C",
"a  c #68163B",
"s  c #101E48",
"d  c #2A1A41",
"f  c #371D45",
"g  c #3F1D56",
"h  c #14244B",
"j  c #1A2957",
"k  c #0F2751",
"l  c #2C2245",
"z  c #37204B",
"x  c #262756",
"c  c #382556",
"v  c #173B76",
"b  c #113068",
"n  c #2D346E",
"m  c #27107D",
"M  c #471B47",
"N  c #561A45",
"B  c #551B54",
"V  c #661846",
"C  c #781745",
"Z  c #691B53",
"A  c #761D52",
"S  c #44214D",
"D  c #472558",
"F  c #562459",
"G  c #5D214A",
"H  c #652459",
"J  c #79245A",
"K  c #6F234E",
"L  c #472D63",
"P  c #592966",
"I  c #48316B",
"U  c #473777",
"Y  c #543174",
"T  c #672A67",
"R  c #772A65",
"E  c #653374",
"W  c #78387B",
"Q  c #752F69",
"!  c #651F61",
"~  c #204075",
"^  c #795178",
"/  c #534676",
"(  c #87071C",
")  c #98071E",
"_  c #AB071D",
"`  c #830922",
"'  c #870625",
"]  c #930629",
"[  c #970825",
"{  c #880B36",
"}  c #9A0A38",
"|  c #87153B",
" . c #99123A",
".. c #8E122A",
"X. c #A40924",
"o. c #AC052B",
"O. c #A4092B",
"+. c #AC0A2C",
"@. c #A70527",
"#. c #B3042D",
"$. c #BB052C",
"%. c #B40A2B",
"&. c #BD0B2C",
"*. c #B70724",
"=. c #A80937",
"-. c #B70A35",
";. c #AA1639",
":. c #BA1538",
">. c #B0172D",
",. c #B42636",
"<. c #C40A2B",
"1. c #CB0B2C",
"2. c #C80628",
"3. c #D7072B",
"4. c #CA142B",
"5. c #CB0C34",
"6. c #C80936",
"7. c #DC0C33",
"8. c #D60836",
"9. c #C71637",
"0. c #D81837",
"q. c #DB142E",
"w. c #EB092E",
"e. c #E6072C",
"r. c #F6042C",
"t. c #E30A33",
"y. c #E80837",
"u. c #F50B33",
"i. c #FC0B33",
"p. c #FB043B",
"a. c #FC0C3C",
"s. c #F60637",
"d. c #E91738",
"f. c #FD143D",
"g. c #F6163A",
"h. c #E6132F",
"j. c #CC2435",
"k. c #DA2938",
"l. c #D23239",
"z. c #E6243A",
"x. c #F7243C",
"c. c #ED333D",
"v. c #E4493F",
"b. c #9A0B45",
"n. c #871848",
"m. c #991847",
"M. c #911955",
"N. c #B60C43",
"B. c #A61847",
"V. c #BA1952",
"C. c #B0114A",
"Z. c #882456",
"A. c #982656",
"S. c #99315A",
"D. c #89284D",
"F. c #A42359",
"G. c #B9275B",
"H. c #B22A4F",
"J. c #971D65",
"K. c #852A66",
"L. c #952964",
"P. c #883776",
"I. c #953677",
"U. c #8D316E",
"Y. c #AD2B66",
"T. c #BB2763",
"R. c #BB3B76",
"E. c #B0316D",
"W. c #B61461",
"Q. c #C91745",
"!. c #D51847",
"~. c #C61454",
"^. c #D00D4A",
"/. c #E90945",
"(. c #FA0844",
"). c #EB1746",
"_. c #F81646",
"`. c #F11454",
"'. c #C9254A",
"]. c #D72647",
"[. c #DA334A",
"{. c #C92856",
"}. c #CE2F56",
"|. c #E62547",
" X c #F82746",
".X c #E93847",
"XX c #F83946",
"oX c #F72857",
"OX c #FA3656",
"+X c #E82D57",
"@X c #E91369",
"#X c #CF336E",
"$X c #EE316C",
"%X c #B34B73",
"&X c #9E4969",
"*X c #D24354",
"=X c #FB434B",
"-X c #F6454A",
";X c #FA554B",
":X c #F94954",
">X c #FA5758",
",X c #E74A4E",
"<X c #F96859",
"1X c #F9745B",
"2X c #F36650",
"3X c #D14C75",
"4X c #F74963",
"5X c #F85566",
"6X c #F85375",
"7X c #F04C72",
"8X c #FB6B65",
"9X c #FA7667",
"0X c #F77176",
"qX c #FB956A",
"wX c #F98776",
"eX c #FA9677",
"rX c #FA8567",
"tX c #173D86",
"yX c #313F86",
"uX c #6E3E88",
"iX c #463D88",
"pX c #174286",
"aX c #144C99",
"sX c #2E488E",
"dX c #1957A8",
"fX c #2E61A8",
"gX c #3255A4",
"hX c #66589B",
"jX c #694A91",
"kX c #4E68AE",
"lX c #6F6EB4",
"zX c #5F509E",
"xX c #2776CA",
"cX c #4E73C3",
"vX c #863687",
"bX c #AA3B83",
"nX c #E52989",
"mX c #914C8A",
"MX c #B04E8D",
"NX c #A758A6",
"BX c #916CB1",
"VX c #AF70B1",
"CX c #9B5CA1",
"ZX c #C7649B",
"AX c #EC7190",
"SX c #C259A4",
"DX c #E3609F",
"FX c #F29390",
"GX c #F8AD92",
"HX c #F6B1B8",
"JX c #ED90B2",
"KX c #F9CCB1",
"LX c #FAC99E",
"PX c #EC9CCB",
"IX c #F8D6D1",
"UX c #ECDCD6",
/* pixels */
"# O # + + , 3 , 0 9 < O < [ ) < ! { @.6.] < 4 [ y 5 ) y 2 i ~.8.l.4.` 0 y 3.[ y @.w.4 u.[ 3 ` ` 1 < 6 6 3 O b.=., , < , , 2 + O ",
"O , O , + , t 3 + y ' + t y t 0 8.#.y ] /.6 ` ` 4 6 ~.y < } `.8.9X,.y t { e.Q.-.[ 3.&.%.7 ` %.( <.[ 5 5 2 1 t t 1 < 1 3 , , + O ",
", # + O + < 0 3 + o.-.+ Q t q J 3.p.&.` ) ' ` @.{.MXu 8.] +.h.8.rXk.#...] GXmXb.) y w.' 5 #.p.` g.&.2 2 7 7 1 < 1 2 1 1 < , + , ",
"1 # , ( 1 + < _ 1 y 6.6 #.o.[ u.d.2.2.^.E.0 9 @.$XSX1 Q.-.[.<X2.9X.X#.{ -.:XR.~.q.l.2.] ] &.&.O.[ *.1.) ) *.( 4 ( 4 7 4 ( 2 < 4 ",
"+ < + _ ( , 1 3.4 ` 8...{.+.' 3.e.7.7.7XPX8.=.+.3.6.j.DXV.3.a.|.w.o.` #.(.c.&.{  .z.%.@.t.e.` t.[ ) i.u._ w.2.4 ) 4 ` y ( 4 1 4 ",
"O 1 ( < t -.$.3 $.d.j.` DX .[ XXd._.d.OX4Xc.g.#.:. X>.`.t.2.;.PX;.O.O.#.$.<.%.O.] O.+.%.1.+.$.<.%.[ X.[ @.3.w.3.2.1.1.&.( ( 6 6 ",
"+ , 6 7 5 %.9.5 t.d.1.*.e.] y >.u.*.2.3.2.:.6.] ..9.5.` [ +.y 5.&.&.0.4.1.<.$.2.7.-.2.2.<.%. Xd.5.&.1.X.2.w.f.f.i.f.i.e.) X.o.' ",
"2 4 3 ; 9.9.2 t g.%.O.g.3.$.O.6.a.,X-X Xy.6.O.j.k.#.9.' &.t.#.y.5.1.d.w.t.3.0.0.5.8.,Xz.7.4.d.u.f.).$.t.*.3.f.g.1.a.u._ <.u.(.8.",
"7 ( < &X,.>.] -.3.{.'.0.e.,X:X-Xq. X0.[ [ x.O.k.,X@.XXO.o.7.t.XX:.7.XX>X1.3.XX[.' p.=Xg.a.3.r.@X`.d.[ i.e.t._.u.[ y.i.*.2.e.t.<.",
"3 5 2 j.8 6 O.OX).6X4X2.s.:X<X Xs.g.d.$.:.:X9.h.t.&. X-.o.].8X1X0.7.:X9X1.y.-XXX8.s.XXf. X>Xp.0X5Xp.).=Xj.6.(.3.~.g.i.e.w.*.) ( ",
"6 X.4.*.y >.z.d.:.-.9.;X8.$X5X=Xp.q.x.z.9.qXXXd.5.:.rXk.w.6XPXi.u.d.g.r.0.3.d. Xs.r.eX:Xg.1Xr.<X>Xp.u. X9.$.y.@.oX/.e.i.a.3.( 7 ",
"2.3.k.t.-.9..X2.3.7.0.>X_._.XX9XoX>X-X.X'.;XqX9X.X8.-Xz.XX5XDX4XXX-X>X6X X X5X4Xg.0X8X>X:X>X0X X_.XXy.i.t.5.e.@.y.1.3.i.(.(.e.1.",
"4 X.k.6 2Xl.3.z.8X<X Xs.>X<XeXIXUXKX[..X9Xu.rXeX,X3.=X2.2X2Xq.LXqXz.[.GXr.;XeX>Xr.GXg.AXKXXX0X_. X<Xp.7.5.8.s.w.s.t.e.i.i.a.i.u.",
"[ 4.j.4 k.>.*.XXKX9Xx._.XX0..XwXFXXX.X:X=Xx.-X-XXXd.:X X-X;XXX=X;X:X.X=X6X>XXXOX6XoX(.AXHXp. X_._. X X5.0.z.3.(.(.a.(.i.i.i.3.2.",
",.,.5 4 c.,.[ z.1X-Xz.;XqXd.XX;XXXw.HXIXwXr.XXqX9Xu.<X8Xd.h.=X-X;XwX9Xp.HX).g.9XKXp.f.8X0Xr.>X Xy.7.1X0.d.:X=XOX(.i._.a.a.s.3.3.",
"y 3 t %.l.,.X.c.v.z.4..Xd.*X.XXXz.6.JXFX2Xd. X;X,X0.XX=X X.X1X>X<X;X:X>X;X-X:XXX=X X_. XoXOX_. X.X|.XX|./.f.<X=X Xa._._.(.s.t.w.",
"e < ) XXy 4.0.j.q.1.*.j.1XLX8X.X-XO.c.XX X2X2XXX-X1XXXx.0XGX9XwXXXXX9XGXy..X8X<XeX=Xp. X8XGXOX9XwX:X3.$X$Xu.XXg.g. Xs.a.a.u.2.*.",
"e | m.H...;.:. .*X .;.3XFX,X.X].[.'.q.0.9.z.9.4.z..Xz.9.].XXx.u.7.d.=X;Xg.8.t.d.:X_. X=X<XGX X(.).(.6.y. X X X(.r.t.*.e. X4X&.( ",
"V.$XE.T OXA A.L.P 9.R.NXMX9.+XG.K.bX;.'.].+.oX;.Q.|.;.DX'.&.t.-XOX). X>X Xd.5.5.oXOXd..XwXAXOXz.$.$.s.y.1.+.X.3.w.2.%.s.).OXN.` ",
"C.9.'.H.;.m.S.S.E.#XQ.R.CX].0.:.m.!.9.Q.:.;.9.:.:.:.;.ZXG.9.;Xy.6.Q.^.0.~.=.#.|.UX$Xe.d. XT.!.8.=.5.s.(.(.8.m.-.2.@.@.p.8.O.i 0 ",
"p  .'.+X} i %XDX|.VXA.3XJX/.$X}.:.#Xd.d.!.+X#XI.H.,X8.SX3X[.k.GX7XA.K.+XmXW M.Q.7XOXQ.N._.8.y.6.} p.7./.`.(.nXT.] ] [ 3.o.y 0 3 ",
"n.m.B.'.'.p U.MXC.P.Z.G.6X_.SXMX}.lX!.:.{ Q.m.J G.XX-.Z.'. X6.wXOX} D NXL.R Z i (.|.E.J._.y.6.6.+XDX(.^.B.6.G.V.{ ' o.] t 0 0 0 ",
"C K K.I.,.D.n.n.B.lXP.E.ZX5.6.|.4X>XZ.Z.n.N VXB.n.D.9.'.9.!..X6.-.o.B.I.=.I.MX:.|.O.E.3X@./.-.O.|.nX(.^.C t N.y.6.m.N.} q N q q ",
"9 A.Y.H : p a e L.U K.!.:XB.B.'.Q.^.P.R p : Z.jXzXQ  .I.uXK.9.d.A K.#XO.y %XDXR.C i H.*XM V. .u u y $.`.@X0 nXG. .$Xb.b.C.C N q ",
"- G K N sXJ C G U.; D.}.^.Z R.}.F.L MX3X}.| }.NXNXT.}.Y.bXE.;.3X%XVXUX].m.3XAXBXL.| m.F.uXBXU.C R q B.@XnXn.jXP.n.vXC.W.nX~.q r ",
"; ; : S / D D U H S V Z.E R.E.A.R cXE D.B.p F.Z.Z.B.!.} B.{.Q.VX$X5XHX#XmXY.6.6.).Q.Q.!.m.MX#X} F -.~.b.t `.B M.^.C oX$XE.m.0 9 ",
"b % * ; z sXaXx S T K H sXY.+X%Xc sXB jXhXr n M.-.B.FXS.C A.^.ZX}.{.vXhXBXmX;.!.VX3X).V.n.n. .R cX/.8.=.e zXS r u u R.#X: : > > ",
"& l f $ v n x ; d M R S.N T A.B.L n F Q Q : uXBXZX).HXY.i | { $.o.{ n.M.!.`.m.q I H p i `.U Y F.#XZ V p ! P S q { q U P r : - m ",
"v x ; pXh v pX; fXx D.3XpXlXU x f f T J a V hXhX^ {.a.C F J { B.n.H Q M.+XoXb.: : N A n.R.S i -.{ N : > A (.u f F @ : f w > d j ",
"% $ $ h * j v x kXP u F xXD U fXc dXE Z.A n.L M V Z.Q.V Y W m.B.E E } M n.L.E I p mXmXq jXV J vXkXE ! N 0 W.u n dXw - : w * tXtX",
"  $ % k * j v x b P.%X% sXl ; : a F M S.#XM S H K K m.I.W H p B.R T F.c iXU c J | hXkXg J.| F yXjXT H F D c r D aXM : = @ $ k j ",
"  $ & & - ; % ; $ / jX; dXn l N /.T P J #Xc I F M : } 6X%XM n.e M F e P Q L.A e H U n M -.C D c u ^.=.N vXM 9 f j - = * o h % $ ",
"s s $   n.p & v $ b b f j n L C -.c L F R L I Q D.M ~.L.E Y n.r S D d gXA  .C ; n.A S d w f c c f T.C > W.r * * = o o o o s % . ",
"j v X s - * & h % j x d h c c D N dXn N S M pXI.{.x Q A C V q M V V z jXF N e l C.i c tXN f x n S C q B CXz = x aX% o o $ . . . ",
"$ l   aX& h b . s ~ v $ pX: x aXd L f e n.M sXP Z v C zXP u : c V P aXV D S w z w f z f w w f f > w w : F : * ; b $ . $ . $ $ . ",
"X X & . . & & $ tXdXv % xXx x aXx w d w =.N w w N a I L D N e z S U gXn f w M c w : d ; - - n pX- : b.} $ * * o . . . . . . . . "
};
