/* XPM */
static const char *south[] = {
/* columns rows colors chars-per-pixel */
"64 36 180 2 ",
"   c #340223",
".  c #3B0125",
"X  c #3C022B",
"o  c #3D0232",
"O  c #3D033D",
"+  c #400227",
"@  c #44012C",
"#  c #4C012D",
"$  c #52012E",
"%  c #430233",
"&  c #4C0134",
"*  c #44023B",
"=  c #4C023C",
"-  c #530134",
";  c #5A0135",
":  c #54013C",
">  c #5C013B",
",  c #62013D",
"<  c #120945",
"1  c #140A4B",
"2  c #1D084E",
"3  c #160A54",
"4  c #1B0A54",
"5  c #160A5A",
"6  c #1B0B5D",
"7  c #270646",
"8  c #2C0643",
"9  c #2E074C",
"0  c #24084D",
"q  c #350546",
"w  c #3C0443",
"e  c #33064C",
"r  c #3C054C",
"t  c #270652",
"y  c #2D0652",
"u  c #240953",
"i  c #2B0953",
"p  c #2D075C",
"a  c #23095C",
"s  c #2A085C",
"d  c #360655",
"f  c #3C0553",
"g  c #34075C",
"h  c #3C065B",
"j  c #32085E",
"k  c #38085E",
"l  c #160B60",
"z  c #1C0B64",
"x  c #1D0C6A",
"c  c #1F0D72",
"v  c #230A64",
"b  c #2B0965",
"n  c #240B6B",
"m  c #2B0A6C",
"M  c #340763",
"N  c #3B0664",
"B  c #330865",
"V  c #3A0865",
"C  c #35076B",
"Z  c #3D066B",
"A  c #33096C",
"S  c #3A086B",
"D  c #250C73",
"F  c #2B0A72",
"G  c #230C7A",
"H  c #2B0B7A",
"J  c #380771",
"K  c #310A74",
"L  c #3B0973",
"P  c #3C0779",
"I  c #330B7B",
"U  c #3B097A",
"Y  c #430445",
"T  c #400444",
"R  c #440243",
"E  c #490040",
"W  c #4B0041",
"Q  c #4B0042",
"!  c #4A0043",
"~  c #4E0241",
"^  c #480147",
"/  c #4A0146",
"(  c #4B0244",
")  c #43024A",
"_  c #44044B",
"`  c #45024F",
"'  c #45044F",
"]  c #45034B",
"[  c #480048",
"{  c #480049",
"}  c #4A0149",
"|  c #4A014B",
" . c #4A004A",
".. c #4E024B",
"X. c #4C014B",
"o. c #48004C",
"O. c #4B024F",
"+. c #4D014C",
"@. c #4B034C",
"#. c #530041",
"$. c #520042",
"%. c #500142",
"&. c #530044",
"*. c #510247",
"=. c #540243",
"-. c #5C0143",
";. c #54004D",
":. c #54024B",
">. c #5B014B",
",. c #430251",
"<. c #420353",
"1. c #420252",
"2. c #460150",
"3. c #470152",
"4. c #410355",
"5. c #410354",
"6. c #430357",
"7. c #450254",
"8. c #460254",
"9. c #440356",
"0. c #430453",
"q. c #490252",
"w. c #4A0253",
"e. c #4E0150",
"r. c #4E0352",
"t. c #4B0255",
"y. c #4E0157",
"u. c #4B0353",
"i. c #410358",
"p. c #420358",
"a. c #43045B",
"s. c #440558",
"d. c #44055A",
"f. c #47055A",
"g. c #41045C",
"h. c #42065D",
"j. c #44055C",
"k. c #47055D",
"l. c #45055F",
"z. c #47055E",
"x. c #44055B",
"c. c #4C045F",
"v. c #4C045C",
"b. c #530150",
"n. c #520151",
"m. c #520152",
"M. c #550152",
"N. c #510154",
"B. c #530253",
"V. c #5B0253",
"C. c #510159",
"Z. c #52025B",
"A. c #5B025C",
"S. c #620143",
"D. c #690044",
"F. c #63014B",
"G. c #6B014B",
"H. c #70004C",
"J. c #630153",
"K. c #6A0154",
"L. c #63015B",
"P. c #69005B",
"I. c #400665",
"U. c #440563",
"Y. c #480565",
"T. c #4A0563",
"R. c #42076B",
"E. c #43066B",
"W. c #4B056C",
"Q. c #41086E",
"!. c #530364",
"~. c #5B0263",
"^. c #52046B",
"/. c #590269",
"(. c #450674",
"). c #4B0572",
"_. c #410875",
"`. c #420978",
"'. c #540372",
"]. c #610261",
/* pixels */
"        X X X X X o % % * o % E E ^ ^ ^ [ [ o.) w ` 3.,.,.6.6.6.i.h e h N h g g M y j M b b b b b b m 6 6 v z z 6 6 5 5 5 3 1 3 ",
"  .     X X X % % % % * = X % = E E E / | | | R o q.3.8.8.6.8.p.p.h.8 h U.N V V V 7 p C M b b b b b m 4 4 n v v z 6 6 6 5 5 < 5 ",
"      . . X X X X X @ % % % % % % * * * R R E Y O T w w w r r r q f e e d d g g g y p p s s s s a a a 2 a 4 3 3 4 3 3 3 3 3 1 3 ",
". X @ @ @ % % % @ & = = = #.= ~ ~ *.E = X.X.+.e.e.o.q.t.' r s.s.s.s.z.h.e d N V V V M M M A s s m b b b m v v v v 4 z z z 6 z 5 ",
"+ @ @ @ # & & = @ & : : #.#.#.&.&.;.* * M.b.b.b.b.N.y.Z._ w c.s.c.z.z.Y.e d R.Z Z S S S C C p t m m m m b v v n v 1 z z z z z z ",
". . . . + @ @ % @ % & & & = & % * * * * / / / / / [ [ [ _ w r r r r r f e f h g g g j j g s t t s a u a a a 6 6 4 3 6 5 5 5 5 5 ",
"@ @ # @ & & & : : : =.=.=.: =.>.:.:.>.;.;.M.M.M.+.Z.Z.Z.Z.!.c.c.T.T.0.I.Y.E.R.R.R.k V S C C C A A m m b b m m n n D n x x z 6 z ",
"# & & # : > > > > -.-.-.S.: =.>.>.>.>.V.V.V.V.M.( Z.Z.Z.Z.Z.!.T.!.^.r U.W.E.E.E.E.d Z Z J J J C C J K a v H F n D n n n n z 6 x ",
"@ @ # @ & - - : : : : : : - = #.#.:.:.:.&.*.*.( E e.e.e.e.y.t.t.f.c.r f U.I.I.I.h 9 V V B B B B B b b a b m m n n n x z z z 3 z ",
"# & - - - - - > - > -.> -.>.-.-.-.>.:.:.>.;.;.B.M.b.b.b.r.' v.v.t.c.^.Y.p.Y.Y.U.U.R.Z S S S B B A A A K K m m m v a n v z x x z ",
"- ; ; > > > , S.- , S.S.G.G.G.G.F.J.-.>.P.L.L.L.L.L.~.~.A._ !.!.!.!.^.^.r Y.W.W.W.(.(.(.L _.j M U L U U K I H H n a H D G D D D ",
"# $ $ & - - : > - - > > > -.-.-.-.>.=.#.>.>.;.;.M.M.M.b.N.T v.v.f.0.c.T.r z.U.I.N N N V V Z p s A A m m m b m m v 6 n v n n x x ",
"$ - $ $ - ; ; > S.S.S.S.S.: -.F.-.F.J.>.>.>.V.M.*.;.B.B.A.Z.Z.Z.c.v.u.f.T.W.Y.E.Y.h R.Q.Q.Z S P A A A b A m m m m F D n z z z x ",
"; ; ; ; > , S.S.S.D.D.G.G.> > G.G.F.F.J.J.J.J.V.&.A.A.A.A.A.A.!.!.!.3.c.^.^.W.).W.d ).).(.(._._.P P U b m K K H H F H H D n 6 D ",
"$ $ $ # ; ; > > > > > -.S.> > -.-.>.>.>.>.>.>.>.= V.M.M.N.N.N.Z.y.v.) ,.c.z.z.U.h d E.N N V S S C C C s b m m m m n n n n z 4 n ",
"$ ; ; ; ; ; ; > ; , , S.S.G.G.S.G.F.F.>.J.J.J.L.J.V.A.A.B.O.Z.Z.Z.Z.Z.c.f.T.Y.Y.Y.W.E.R.Z Z g B C A A A K A m m m v F F m n D D ",
"; , , , , D.D.D., D.G.G.H.G.G.K.K.K.F.F.P.P.P.L.L.L.L.L.A.+.~.~./.!.!.T.s.^.^.).).).).).(.(.g S _.P U U L I I I F n H H H H D D ",
"$ - ; ; > > > > - > S.S.S.S.G.F.S.F.: : >.>.>.>.>.M.B.M.:.O e.Z.v.v.v.0.r Y.Y.Y.Y.Y.U.N N Z y M S C A A A m m m a 4 n n n n n x ",
"$ - - - > > > , , > S.S.S.S.S.S.-.>.F.>.>.>.>.>.*.b.M.B.A.Z.u.t.u.v.1.0.T.W.U.Y.I.N Z N N V C J C B B b m m m m m F m n n v v n ",
"; > , $ , D.D.D.D.D.G.G.G.S.-.G.K.K.K.K.K.K.L.L.*.L.].].~./././.!./.0.c.'.W.'.).E.d ).(._._._.P P U U s F I I I I H H H H n z G ",
"- - ; # > , , , , , S.S.S.: : S.>.F.F.>.>.V.V.V.* M.V.N.y.Z.Z.y.t.c.r 1.T.Y.Y.E.h 9 R.N V V S A A A A u b m m m F F n n D z 5 c ",
"# # - - > > > > ; > S.S.S.G.F.F.F.F.F.:.V.V.V.V.V.V.B.Z.Z.' u.Z.v.v.T.T.0.U.Y.Y.U.Z R.Z V S M B A A A A K F m m v n D D D n c x ",
"; ; > > > > S.S.> > G.G.G.G.K.K.K.K.J.: L.L.L.].].].].~.~.` y./.!.!.!.).f Y.).).(.(.(._.L P g B U L I I H I H H v D H G G G G G ",
"@ # # # # & - - - - > > -.-.-.-.-.:.>.#.:.:.:.b.M.M.N.N.Z.u.' v.u.f.s.U.q h U.N N N V V B C i b A A m b m m n n 6 n n x x x z z ",
"# - $ & - : : > > > > -.-.: -.>.>.>.>.V.V.V.V.;./ b.y.N.N.!.v.v.v.T.p.h.Y.Y.I.h N h V S S S C L A A K b n F m n D D n n n x 6 x ",
"- - @ & > > > > -.S.F.F.F.: -.J.J.J.J.V.L.L.L.M.Y A.A.~.!.!.!.!.!.^.f Y.).).).(.(.9 S `.P P L J U I I b v H H H H H D D G x 3 c ",
"@ @ @ @ # & & & - : : : : & = #.#.#.#.%.*.*.*.O.Y O.' ' ` 0.0.0.1.s.r f I.I.N N V y M V B B B A A m m u v v v v v v z z z z 6 z ",
"# # - - & - - - & : : : =.-.=.:.:.:.~ / M.;.:.M.N.N.y.y.u._ f.f.s.z.Y.h.h h N N V Z S B C A B b A m m m F n n n n 6 x x z z x x ",
"# & & & : : : : & : -.-.-.-.>.>.>.V.~ ~ V.V.V.M.M.Z.Z.Z.u.w !.T.T.T.T.W.d h E.Q.(.L Z J J L b s K m F F F F D D n 3 c c x x x x ",
". + + + % & & & @ % & & : = = * * W = * / / | | | ' ' ` _ w 1.f f f f h e f h g M M M M M B s u b a v a a v a 6 6 3 z z 6 z 6 5 ",
"X + + X @ & & & = = = = = = = ~ ~ ( *.*.X.O.O.' ' u.u.u.v.f.0.s.p.h f h I.N V V V g M B B B b b b v v v v v v v z x x z z z 6 5 ",
"@ @ @ + & & = : : : : :.:.& ~ :.:.:.;.;.M.M.N.e._ C.C.v.c.c.T.T.Y.Y.f I.E.Q.Q.Z Z i C J A A m m m m F a v H D n x x x x x z 5 x ",
". . . . @ @ % X % & = = = % * E E E / / / | | ^ O 0.0.0.0.s.0.p.p.h.e d N V V M M 7 M B B b b b b v v 4 a v z z z z z 6 6 5 1 5 ",
"    . . X X X X X o % % % * * * * * * * R R T _ w r ) r r r f f f h h h d g g j g p b s s b s s a v v v v 6 6 6 6 4 6 3 3 3 3 3 ",
"  . . X X X o % X % * * * * E E E / * E e.o.o.q.t.8.0.0.1.q p.p.h h h N 9 g V M M M b b b m u a n v n n v v z z 6 3 z z z 5 5 5 ",
"        X X X X   o o % * * * * * E o O [ [ ) ) ,.1.1.,.r q f f f h h h 7 g j j M M b b b b 0 u v v v v v 6 6 z 5 1 5 5 5 5 3 3 "
};
