/* XPM */
static const char *west[] = {
/* columns rows colors chars-per-pixel */
"64 40 250 2 ",
"   c #0B0A0F",
".  c #0B0C14",
"X  c #0B0E1B",
"o  c #060C1C",
"O  c #0C101E",
"+  c #100F1A",
"@  c #0A0E22",
"#  c #0B0E2A",
"$  c #050E26",
"%  c #120D25",
"&  c #120E2D",
"*  c #180D2A",
"=  c #061125",
"-  c #0B1224",
";  c #06132C",
":  c #0B132C",
">  c #0C192E",
",  c #121225",
"<  c #12132B",
"1  c #1B132C",
"2  c #181628",
"3  c #140E37",
"4  c #051533",
"5  c #0B1532",
"6  c #061935",
"7  c #0B1A34",
"8  c #051A3C",
"9  c #0B1C3B",
"0  c #07153B",
"q  c #14133B",
"w  c #121C3D",
"e  c #181835",
"r  c #291A3B",
"t  c #21132F",
"y  c #0D213E",
"u  c #16233B",
"i  c #2D213E",
"p  c #051D43",
"a  c #0A1C43",
"s  c #091947",
"d  c #141C44",
"f  c #1B1B43",
"g  c #171B49",
"h  c #0E1D54",
"j  c #0A1C57",
"k  c #171C56",
"l  c #241847",
"z  c #261B57",
"x  c #361D5A",
"c  c #301448",
"v  c #0C2245",
"b  c #06224B",
"n  c #0C244B",
"m  c #09264A",
"M  c #132345",
"N  c #17244C",
"B  c #0B2453",
"V  c #0C2B54",
"C  c #06245B",
"Z  c #0C2C5D",
"A  c #082657",
"S  c #132C53",
"D  c #172758",
"F  c #0A3159",
"G  c #15335A",
"H  c #2A2347",
"J  c #34264A",
"K  c #23245C",
"L  c #292558",
"P  c #372759",
"I  c #26325C",
"U  c #151D69",
"Y  c #0E1B66",
"T  c #2D1E6D",
"R  c #0C2D64",
"E  c #082A65",
"W  c #172867",
"Q  c #0C346B",
"!  c #0D3767",
"~  c #133464",
"^  c #153B6B",
"/  c #1A3B6C",
"(  c #173767",
")  c #0E2E76",
"_  c #172775",
"`  c #0C3B74",
"'  c #0B3C7A",
"]  c #093877",
"[  c #143B72",
"{  c #183777",
"}  c #242464",
"|  c #282867",
" . c #382A67",
".. c #29346A",
"X. c #252777",
"o. c #342777",
"O. c #233C7B",
"+. c #273679",
"@. c #343579",
"#. c #34336A",
"$. c #462757",
"%. c #46335B",
"&. c #553058",
"*. c #452969",
"=. c #57286B",
"-. c #473469",
";. c #563A6A",
":. c #48297A",
">. c #443974",
",. c #583976",
"<. c #532C76",
"1. c #773779",
"2. c #652B72",
"3. c #63345F",
"4. c #1A426B",
"5. c #0D457B",
"6. c #13447B",
"7. c #1B437B",
"8. c #1B4A7A",
"9. c #164676",
"0. c #174B78",
"q. c #23487A",
"w. c #25527E",
"e. c #26436E",
"r. c #494477",
"t. c #594678",
"y. c #58476F",
"u. c #684979",
"i. c #72537D",
"p. c #724976",
"a. c #84417D",
"s. c #331D8E",
"d. c #1B2782",
"f. c #163B86",
"g. c #12358D",
"h. c #382A87",
"j. c #283485",
"k. c #2B2D8D",
"l. c #2A36A3",
"z. c #452689",
"x. c #573888",
"c. c #4E2C91",
"v. c #6D3B8F",
"b. c #4A2BA5",
"n. c #4C1F9E",
"m. c #0B4986",
"M. c #134D8D",
"N. c #174786",
"B. c #0C558B",
"V. c #18568A",
"C. c #164995",
"Z. c #0D5795",
"A. c #1A5C94",
"S. c #165A96",
"D. c #094C94",
"F. c #264986",
"G. c #36488B",
"H. c #275589",
"J. c #244997",
"K. c #275998",
"L. c #374D98",
"P. c #19669B",
"I. c #146696",
"U. c #266698",
"Y. c #2C6293",
"T. c #1758A3",
"R. c #1051A8",
"E. c #2A5CA5",
"W. c #3550AD",
"Q. c #1769A6",
"!. c #1875AA",
"~. c #0A75B2",
"^. c #157AB7",
"/. c #106BAD",
"(. c #276AA9",
"). c #3665A6",
"_. c #2877AA",
"`. c #3669B4",
"'. c #2A7BB6",
"]. c #367CB8",
"[. c #3671A8",
"{. c #544984",
"}. c #6B5687",
"|. c #785A89",
" X c #6D478D",
".X c #756996",
"XX c #484CB6",
"oX c #4777B8",
"OX c #4C72BC",
"+X c #3A72C9",
"@X c #1A73C9",
"#X c #584EC6",
"$X c #7156D3",
"%X c #4F71CA",
"&X c #7D6DDF",
"*X c #834983",
"=X c #8E548E",
"-X c #A9578E",
";X c #886595",
":X c #8F6B97",
">X c #A66796",
",X c #A7719E",
"<X c #967BA4",
"1X c #8F76A7",
"2X c #B077AA",
"3X c #C674AD",
"4X c #1987B9",
"5X c #138DBB",
"6X c #2588B8",
"7X c #3984BA",
"8X c #448BBA",
"9X c #4F96BD",
"0X c #1899C7",
"qX c #159AD4",
"wX c #128CC8",
"eX c #2595C7",
"rX c #3498C6",
"tX c #2F8DCD",
"yX c #18AED7",
"uX c #30ACCF",
"iX c #4B86C6",
"pX c #4798C9",
"aX c #5691CD",
"sX c #6491CD",
"dX c #4DB0D4",
"fX c #66A4D1",
"gX c #7D8CE7",
"hX c #2CC3DE",
"jX c #31CFE9",
"kX c #1CCDE8",
"lX c #52C4DC",
"zX c #4BD2EC",
"xX c #6CDBF0",
"cX c #6EE5F7",
"vX c #7FE7F4",
"bX c #5BE2F6",
"nX c #988AAF",
"mX c #B698BA",
"MX c #AA8AB1",
"NX c #C396BA",
"BX c #BAA7C6",
"VX c #9C9ADD",
"CX c #CBB2CE",
"ZX c #DDA6C9",
"AX c #A4EEF4",
"SX c #8CD7EE",
"DX c #D3CBD8",
"FX c #FDF7FC",
"GX c #F7E6F4",
"HX c #E8D1E3",
/* pixels */
"~.^.5XqX4X~.wXqXjXjXbXvXAXAXcXjXkXyXqXqXtXpX(.^.~.~.~.m.S.^.Z.B.D.R.D.f.E E C E C C j h h h k z z T *.1.*X1.=X-X2XmXHXGXFXFXGXZX",
"4X!.!.!.6X5X5X0XuXlXlXuXSXAXAXxXhX4X4X^.8XiX`.Q./.Z.Z.6.V.Z.m.S.T.R.R.g._ Y E R C C C j h h k k x x *.2.1.1.-X-X,XmXCXDXDXDXCXNX",
"5X4X4X6XeX0XuXuXhXyXzXcXAXAXSXlXuX0XeX4X'.7X_.P.Z.B.8.6.N.S.(.(.%X%XW.W.l.d.{ N._ _ _ X.X.T  .z x =.=.1.1.=X3X2X=XmXDXHXDXDXCXCX",
"/.^.4X5XeX6XpXuXyXkXjXzXzXcXcXuXyXqXwXwX^.^./.S.Q.!.m.m.M.C.`.+X#X#XXXl.g.d._ ] _ d.s.b.b.c.:.T <.2.2.1.*X-X3X2XMXZXHXGXFXFXGXCX",
"I.I.'.7X8X9XfXdXdXrXdXdXlXdXdXdXrX4X4X_.Q.A.M.V.A.V.Z.M.S.(.E.`.#X#Xb.W.W.l.{ { d.d.s.s.n.z.X.U <.=.=.v.a.*X>XmXMX1XnXnX.X.XnX.X",
"4X'.+XiXiXfXfXfXdX6XrXdXdXxXcXbXrX_.!.I.A.N.S.Q.S.A.P.A.P./.Q.E.+X#Xb.%XaXM.f.f.j.k.h.s.n.z.h.X. .<.*.=X3X*X*X2XNXCXmXBXBX;XnXMX",
"V.(.%X%XW.).oXoX].].(.(.A.8X7X6X_.V.S.B.B.5.Q.T.Q.Q./.Q.Q.^.P.g.C.l.k.OXJ.) ) E _ X.T s.z.:.z.:.*.x  .=.|.<X>X:X,X;X}.|.;.u.;.u.",
"{ J.E.`.E.).E.).(.eXeX6X7X(.8XaXrXeX6X^.P.P.Q.6XuXyXyXeX0X4XQ.S.S.S.S._.J.C.f.W _ j.h.h.z.c.z.:.,.<.,.,.1XBXCXMX<XnX1X.XnXBX<XMX",
") f.R.T.T.`.%X+XtXtXwXqXwXwXrXrXyXqXwX~./.Q./.!.0XqXqXqXwX5XI.Z.B.m.m.' ] [ E { { { X.o.h.:.o. .*.2.<.@.1X|.|.;Xu.=.$.;.:X:X:X|.",
"F.K.K.`.OXOXfXsXiXC.A.'.(.'.7X_.A.E.'.(.S.S.P.U._.4X4X4X4X!.U.V.0.! Q Z R R { O.X.{ j.@.@.:.<.:.x. X X@.;.P $.$.$.c ;.u.$.J ;.$.",
"D.Q.).XX$X&XVXVXSXSXpXrXpX6XeXtXK.E.pX(.M.K._.V.P._.rXeX6X_._.P.Q.V.V.{ [ 8.N.O.+.O.F.G.h.z. X Xv.:.,.,X>X;.;X=X;Xu.;X;X3.;.<XMX",
"E 6.).s.b.$X$XgXgXsXY.[ b A.!.K.oXfXoXK.N.K.A.N.N._.rXA.Z 9.A.m.6.E 7.Q R / E R B W +.X.} X.:.*.*.x <.p.>X%.}.;X|.}.u.u.|.i.y.i.",
"..Z H.).L.XX#X#X%X`._.Y.9.(._.8XfXfX%X).U.U.~ W O.[.H.( w.Y.H.F.F.G.H.F.7.7.7.F.O.+...+.G.{.r.>.>.>.t.t.t.r.}.t.t.}.}.t.}.;.%.%.",
"/ ~ E f.L.k.XXXXJ.C.S.U.U.Z.Z.T.@XtX+XU.0.5.` Q ` Q A ~ ` ` [ { F.F.G.G.F.' ` 7.Q W k ) _ } z K } z z z z z P }.;.x x $.$.c c c ",
"/ w.7.F.Y.K.K.7.q.w.H.F./ 8.8.H._.].).[.[ ( 4./ ( ~ [ { W h R O.F.).L.G.F.7.N.7.W | | ..| L P L z x  .-.;. .;.|.nX<Xi.y.P p.;Xi.",
"_ ) ` ' M.S.V.7.^ 6.6.6.0.M.A.A.P./././.V.7.Z.5.[ ^ ' { { N.E.T.J.N.m.M.M.K.M.N.f.j.+.@.X.X.@.-.-. .>.{.,.-.}.;Xp.p.p.u.$.3.&.$.",
"W / q.7.' ` 9.( V V ( S G ( ^ ( 9.N.M.B.m.9.6.V p s s s k ( Z A A Z ^ [ 7.F./ W W _ W W k k k g L  . . .P P -.-.-.P $.;.%.r r t ",
"/ W { N.V.V.B.P.6X^ 8.S.Y.8.8.G G G N ( V.m.! V 5.6.( / { W D B C E C ! [ ^ / W O.+.+.| #.| L x -.{. Xt.{.u.u.%.f %.%.P l H g q ",
"j j C E V.A.A.^ 8.Y.5.B.5.Q ~ ^ 4.( v ! 5.! A ~ N.E j W U Y j E ` R R ~ R A j W Q D k K | | P z  .*.,.P -.P P J l f l z P P l l ",
"h h D ^ H.0.^ ( ^ U.A.e.S ( ^ V.5.R ~ H.9.~ 6.F.( j W j.j.O.{ N.6.6.N.H.q.Z B W k k k K L  .-.-. .z z >.r.r.l P t.t..X1X1X|.t.t.",
"C C E Z Z Q ` ] ] ] ] Z Z ! ] m.B.5.b 0 8 ^ D.E 0 h _ d.d._ N.M.C.C.C.C.[ Z ~ ~ W W W W k z z P P P  .L k L J J -.-.>.#.K d f e ",
"4.( 9.9.4.V V G S F V G 4.( ( S ~ ( S v v G n v G +.X.k.L.+./ S n n v a a N I S n N K g g a a f H >.{.>.P l J %.H P  .L L l q q ",
"~ n F ' S.V.Z ` ` 5.5.9.( v S F 9.5.5.~ R ! n y S D h W ) Q S 4 6 6 6 6 b b a s h B g s p s s N I K #.P l e f e e f L L L f q d ",
"; ; 9 8 V w.6.9.( S V V n S S V ( Q Z b n b p 5 # ; g W R D a a S n n b F ( ..#.@...( D D D D g g d q q e H J H J l q q q & & & ",
"@ = $ # n 8.V.V.8.8.8.9 v ~ ! 4.! F R G V b p a a n ~ ~ ~ V v n S S A R [ 7.F.G.G.q.......I D N g H w f H J i J J H 1 1 * 1 1 & ",
"- = 8 6 8 p V V B F F p G n B B n n B p p B v p 8 p p p 8 6 6 8 8 0 v Z R Q ) _ _ W D s s g N N N M q f d 3 % & # % * * * 2 % % ",
"u y S G G N 7 G ( D a / q.G 0 a a 9 7 b A M v B B v 8 6 6 6 6 > 7 9 M B W W _ X._ W D | I N N #.#.| | o.| z r 3 q 1 % @ < 1 t 1 ",
"> y b b E V a Q N.{ _ ) E A s B s p p E C 8 8 b p 8 6 4 5 ; > = ; 6 6 a h W } X._ } K N d g g W W X.X._ _ } f q f e 1 < 1 1 t 1 ",
"< : 5 7 y 4.( Q f.J.J.f.` / ^ ^ 4.( ( S M v v 8 5 5 4 5 5 - : 7 w 9 9 8 n D D W D g 0 5 M g K | o.x.v.x.h.@.L L H 1 r H r r t * ",
"> 9 m v 8 Z Q E ) g.g.d.) Q ~ Q Q ! R V b b p 8 4 5 ; : : - : 5 5 5 5 5 0 s g B D s a 5 9 a N } @.x. Xv.o.D f w 3 , 1 e e q 3 3 ",
"w 6 8 6 6 4 a h W _ _ Y j A V m p 8 p v 9 8 9 9 6 5 < : @ = - : # @ @ @ : 5 w 9 d d w w a 8 d g D U _ o.} d & # : , @ @ # # & & ",
"@ : 8 n m y v Z [ f.N.! ~ F V b m m S S 9 6 7 w 9 6 7 > : 5 5 : ; : : # - < > 7 u w 7 M a a v N K } W } L l i < 5 < , % % & & 3 ",
"= : ; 0 4 6 9 p p b V A A A V m v v 6 p m p = @ @ o . X @ # # : ; : : # - - > : - : > 9 9 8 6 5 5 q 0 0 5 ; , , # @ % % % * < 3 ",
"o o $ ; w y 4 ; 7 9 y M v S G G V p 7 > : > @ o . . o X @ = = - , 2 , + , , 2 2 , - > e u > - : ; 5 5 # , , e u , X e e 1 , < e ",
"@ @ : 7 ; 4 6 4 4 8 8 $ 9 8 6 6 6 6 8 4 - o o o o o X X X O O o o X o o o o o O O o @ - @ @ - : > ; : - , : - = - - - - % % % , ",
"@ X o = ; ; 4 = = = ; 6 4 4 4 9 9 8 7 > = o . o o o X X o o @ @ - : > 7 > : = O @ : 7 > > - - = > > > u u M u e - - : - @ % < , ",
"@ - = - : ; 5 > = = ; 6 4 > = = > 5 : = O O X X X X + X X X O - - = = = ; : X + O - , - - - - = > 7 7 7 9 M u < 5 5 7 5 5 < < < ",
"@ @ @ o o @ = ; 4 ; 4 5 ; = : > = = > > - o X X . . . . . . . X o @ @ @ o o X X X X X @ @ = - : : : 7 5 ; : : ; : 5 5 5 : : - - ",
"@ o o o @ @ - w 9 8 5 7 ; : : : - = > - O o X X X . . . .   . . . X X . . . X X X X X = - @ - > : : < : : 5 5 5 : ; 5 5 5 ; 5 5 ",
"@ @ = = @ @ @ > 8 7 8 v 8 ; : : - o o o . . . . . . . . .       . . .   . . . . . . . X o o = - - - - - : 5 5 : : : 5 : : # ; 5 "
};
